<!-- @formatter:off -->
<svg xmlns="http://www.w3.org/2000/svg" xmlns:xlink="http://www.w3.org/1999/xlink">
    <defs>
        <svg id="home" viewBox="0 0 20 22" fill="none" xmlns="http://www.w3.org/2000/svg">
            <path d="M1 8L10 1L19 8V19C19 19.5304 18.7893 20.0391 18.4142 20.4142C18.0391 20.7893 17.5304 21 17 21H3C2.46957 21 1.96086 20.7893 1.58579 20.4142C1.21071 20.0391 1 19.5304 1 19V8Z" stroke="currentColor" stroke-width="2" stroke-linecap="round" stroke-linejoin="round"/>
            <path d="M7 21V11H13V21" stroke="currentColor" stroke-width="2" stroke-linecap="round" stroke-linejoin="round"/>
        </svg>
        <svg id="sliders" viewBox="0 0 24 20" fill="none" xmlns="http://www.w3.org/2000/svg">
            <path d="M4 19V12" stroke="currentColor" stroke-width="2" stroke-linecap="round" stroke-linejoin="round"/>
            <path d="M4 8V1" stroke="currentColor" stroke-width="2" stroke-linecap="round" stroke-linejoin="round"/>
            <path d="M12 19V10" stroke="currentColor" stroke-width="2" stroke-linecap="round" stroke-linejoin="round"/>
            <path d="M12 6V1" stroke="currentColor" stroke-width="2" stroke-linecap="round" stroke-linejoin="round"/>
            <path d="M20 19V14" stroke="currentColor" stroke-width="2" stroke-linecap="round" stroke-linejoin="round"/>
            <path d="M20 10V1" stroke="currentColor" stroke-width="2" stroke-linecap="round" stroke-linejoin="round"/>
            <path d="M1 12H7" stroke="currentColor" stroke-width="2" stroke-linecap="round" stroke-linejoin="round"/>
            <path d="M9 6H15" stroke="currentColor" stroke-width="2" stroke-linecap="round" stroke-linejoin="round"/>
            <path d="M17 14H23" stroke="currentColor" stroke-width="2" stroke-linecap="round" stroke-linejoin="round"/>
        </svg>
        <svg id="close" width="16" height="16" viewBox="0 0 16 16" fill="none" xmlns="http://www.w3.org/2000/svg">
            <path fill-rule="evenodd" clip-rule="evenodd" d="M1.66689 0.281291C1.27926 -0.100357 0.658028 -0.0926839 0.279339 0.298428C-0.0993501 0.689541 -0.0920967 1.31599 0.29554 1.69763L6.69681 8L0.29554 14.3024C-0.0920967 14.684 -0.0993501 15.3105 0.279339 15.7016C0.658028 16.0927 1.27926 16.1004 1.66689 15.7187L8.10177 9.38325L14.3331 15.5183C14.7207 15.9 15.342 15.8923 15.7207 15.5012C16.0993 15.1101 16.0921 14.4836 15.7045 14.102L9.50673 8L15.7045 1.89803C16.0921 1.51639 16.0993 0.889941 15.7207 0.498829C15.342 0.107717 14.7207 0.100044 14.3331 0.481691L8.10177 6.61675L1.66689 0.281291Z" fill="#7C7B7B"/>
        </svg>
        <svg id="edge" width="14" height="10" viewBox="0 0 14 10" fill="none" xmlns="http://www.w3.org/2000/svg">
            <path fill-rule="evenodd" clip-rule="evenodd" d="M1.41573 5.28394C1.41573 5.28399 1.41573 5.28397 1.41573 5.28389C1.41579 5.28251 1.41656 5.26181 1.42765 5.2184C1.43915 5.1734 1.45932 5.11342 1.49209 5.03845C1.5582 4.88719 1.66435 4.70042 1.81451 4.48756C2.11466 4.06211 2.55836 3.57808 3.10515 3.12175C4.21248 2.19763 5.63356 1.47541 7.0029 1.47541C8.37484 1.47541 9.79511 2.18883 10.899 3.10591C11.4444 3.55905 11.8864 4.04084 12.1852 4.46692C12.5096 4.92943 12.5843 5.21076 12.5843 5.28394C12.5843 5.33879 12.5244 5.57911 12.207 5.98149C11.915 6.3517 11.4785 6.76493 10.9339 7.15171C9.83728 7.93053 8.40329 8.53217 7.00662 8.52452C5.60763 8.51686 4.16955 7.90373 3.06912 7.12194C2.52266 6.73371 2.08433 6.32117 1.79111 5.95412C1.6445 5.77059 1.54399 5.61069 1.48289 5.48231C1.45274 5.41896 1.43505 5.36925 1.42532 5.33319C1.41664 5.30098 1.41581 5.28523 1.41574 5.28378L1.41573 5.28367V5.28394ZM7.0029 0C5.1917 0 3.46527 0.931033 2.22021 1.9701C1.59081 2.49537 1.0571 3.07041 0.673889 3.6136C0.482378 3.88506 0.320354 4.16001 0.203718 4.42686C0.0909977 4.68476 0 4.98167 0 5.28394C0 5.86604 0.337906 6.44099 0.703083 6.89811C1.09644 7.39051 1.63937 7.89181 2.27168 8.34102C3.52877 9.23411 5.23821 9.99026 6.99918 9.99991C8.76247 10.0096 10.4731 9.2644 11.7311 8.37091C12.3639 7.92154 12.9072 7.41725 13.3006 6.91839C13.6687 6.4517 14 5.87141 14 5.28394C14 4.71478 13.6861 4.10667 13.3282 3.59633C12.9447 3.04954 12.4108 2.47507 11.7815 1.95224C10.5358 0.917367 8.81149 0 7.0029 0ZM7.00008 7.45897C8.30322 7.45897 9.35963 6.35804 9.35963 4.99997C9.35963 3.64189 8.30322 2.54096 7.00008 2.54096C5.69693 2.54096 4.64053 3.64189 4.64053 4.99997C4.64053 6.35804 5.69693 7.45897 7.00008 7.45897ZM7.9439 4.99997C7.9439 5.54319 7.52133 5.98357 7.00008 5.98357C6.47882 5.98357 6.05626 5.54319 6.05626 4.99997C6.05626 4.45674 6.47882 4.01636 7.00008 4.01636C7.52133 4.01636 7.9439 4.45674 7.9439 4.99997Z" fill="#7C7B7B"/>
        </svg>
        <svg id="no-edge" width="16" height="16" viewBox="0 0 16 16" fill="none" xmlns="http://www.w3.org/2000/svg">
            <path fill-rule="evenodd" clip-rule="evenodd" d="M0.226756 0.226756C0.529097 -0.0755854 1.01929 -0.0755854 1.32163 0.226756L15.7732 14.6784C16.0756 14.9807 16.0756 15.4709 15.7732 15.7732C15.4709 16.0756 14.9807 16.0756 14.6784 15.7732L11.5844 12.6793C10.4961 13.1764 9.25923 13.5119 7.9996 13.5053C6.09561 13.4953 4.24248 12.7101 2.87712 11.7793C2.19078 11.3114 1.60333 10.7905 1.1792 10.2811C0.782466 9.80453 0.43015 9.22126 0.43015 8.64209C0.43015 8.34205 0.524529 8.04324 0.645219 7.77828C0.769714 7.50497 0.943524 7.22156 1.15047 6.94009C1.56454 6.37689 2.14279 5.77871 2.82615 5.23148C3.06322 5.04164 3.31613 4.85544 3.58256 4.67744L0.226756 1.32163C-0.0755854 1.01929 -0.0755854 0.529097 0.226756 0.226756ZM4.57764 5.67252C4.26519 5.86818 3.96651 6.08155 3.68647 6.30581C3.08342 6.78873 2.59268 7.30201 2.25936 7.75537C2.09261 7.98218 1.97312 8.18332 1.89775 8.34881C1.81856 8.52264 1.80649 8.61687 1.80649 8.64209C1.80649 8.71345 1.88278 8.97505 2.23696 9.40046C2.56374 9.79298 3.0495 10.2311 3.65238 10.6421C4.86544 11.469 6.45476 12.1208 8.00683 12.129C8.86154 12.1335 9.72699 11.9409 10.5342 11.6291L9.28611 10.381C8.914 10.6164 8.47294 10.7527 8.00004 10.7527C6.66981 10.7527 5.59144 9.67433 5.59144 8.3441C5.59144 7.8712 5.72772 7.43013 5.96316 7.05803L4.57764 5.67252ZM6.99845 8.09333L8.25081 9.34568C8.17053 9.36572 8.08653 9.37635 8.00004 9.37635C7.42994 9.37635 6.96778 8.9142 6.96778 8.3441C6.96778 8.25761 6.97842 8.17361 6.99845 8.09333ZM8.00321 4.55915C7.82986 4.55915 7.65587 4.56911 7.48186 4.5882L6.31731 3.41027C6.86477 3.26573 7.43036 3.18281 8.00321 3.18281C9.95474 3.18281 11.8222 4.13366 13.1759 5.21285C13.8591 5.75748 14.4375 6.35497 14.8518 6.92176C15.2412 7.45456 15.5699 8.0737 15.5699 8.64209C15.5699 9.22757 15.2241 9.81675 14.8246 10.3028C14.6014 10.5743 14.333 10.848 14.0287 11.1145L13.0527 10.139C13.3358 9.89721 13.5747 9.65593 13.7614 9.42878C14.1116 9.00274 14.1936 8.73071 14.1936 8.64209C14.1936 8.53638 14.0974 8.22208 13.7406 7.7339C13.4086 7.27971 12.9196 6.76869 12.318 6.28907C11.1021 5.31975 9.53024 4.55915 8.00321 4.55915Z" fill="#7C7B7B"/>
        </svg>
    </defs>
</svg>