<!-- @formatter:off -->
<svg xmlns="http://www.w3.org/2000/svg" xmlns:xlink="http://www.w3.org/1999/xlink">
    <defs>
        <svg id="home" viewBox="0 0 20 22" fill="none" xmlns="http://www.w3.org/2000/svg">
            <path d="M1 8L10 1L19 8V19C19 19.5304 18.7893 20.0391 18.4142 20.4142C18.0391 20.7893 17.5304 21 17 21H3C2.46957 21 1.96086 20.7893 1.58579 20.4142C1.21071 20.0391 1 19.5304 1 19V8Z" stroke="currentColor" stroke-width="2" stroke-linecap="round" stroke-linejoin="round"/>
            <path d="M7 21V11H13V21" stroke="currentColor" stroke-width="2" stroke-linecap="round" stroke-linejoin="round"/>
        </svg>
        <svg id="sliders" viewBox="0 0 24 20" fill="none" xmlns="http://www.w3.org/2000/svg">
            <path d="M4 19V12" stroke="currentColor" stroke-width="2" stroke-linecap="round" stroke-linejoin="round"/>
            <path d="M4 8V1" stroke="currentColor" stroke-width="2" stroke-linecap="round" stroke-linejoin="round"/>
            <path d="M12 19V10" stroke="currentColor" stroke-width="2" stroke-linecap="round" stroke-linejoin="round"/>
            <path d="M12 6V1" stroke="currentColor" stroke-width="2" stroke-linecap="round" stroke-linejoin="round"/>
            <path d="M20 19V14" stroke="currentColor" stroke-width="2" stroke-linecap="round" stroke-linejoin="round"/>
            <path d="M20 10V1" stroke="currentColor" stroke-width="2" stroke-linecap="round" stroke-linejoin="round"/>
            <path d="M1 12H7" stroke="currentColor" stroke-width="2" stroke-linecap="round" stroke-linejoin="round"/>
            <path d="M9 6H15" stroke="currentColor" stroke-width="2" stroke-linecap="round" stroke-linejoin="round"/>
            <path d="M17 14H23" stroke="currentColor" stroke-width="2" stroke-linecap="round" stroke-linejoin="round"/>
        </svg>
        <svg id="close" width="16" height="16" viewBox="0 0 16 16" fill="none" xmlns="http://www.w3.org/2000/svg">
            <path fill-rule="evenodd" clip-rule="evenodd" d="M1.66689 0.281291C1.27926 -0.100357 0.658028 -0.0926839 0.279339 0.298428C-0.0993501 0.689541 -0.0920967 1.31599 0.29554 1.69763L6.69681 8L0.29554 14.3024C-0.0920967 14.684 -0.0993501 15.3105 0.279339 15.7016C0.658028 16.0927 1.27926 16.1004 1.66689 15.7187L8.10177 9.38325L14.3331 15.5183C14.7207 15.9 15.342 15.8923 15.7207 15.5012C16.0993 15.1101 16.0921 14.4836 15.7045 14.102L9.50673 8L15.7045 1.89803C16.0921 1.51639 16.0993 0.889941 15.7207 0.498829C15.342 0.107717 14.7207 0.100044 14.3331 0.481691L8.10177 6.61675L1.66689 0.281291Z" fill="#7C7B7B"/>
        </svg>
        <svg id="edge" width="14" height="10" viewBox="0 0 14 10" fill="none" xmlns="http://www.w3.org/2000/svg">
            <path fill-rule="evenodd" clip-rule="evenodd" d="M1.41573 5.28394C1.41573 5.28399 1.41573 5.28397 1.41573 5.28389C1.41579 5.28251 1.41656 5.26181 1.42765 5.2184C1.43915 5.1734 1.45932 5.11342 1.49209 5.03845C1.5582 4.88719 1.66435 4.70042 1.81451 4.48756C2.11466 4.06211 2.55836 3.57808 3.10515 3.12175C4.21248 2.19763 5.63356 1.47541 7.0029 1.47541C8.37484 1.47541 9.79511 2.18883 10.899 3.10591C11.4444 3.55905 11.8864 4.04084 12.1852 4.46692C12.5096 4.92943 12.5843 5.21076 12.5843 5.28394C12.5843 5.33879 12.5244 5.57911 12.207 5.98149C11.915 6.3517 11.4785 6.76493 10.9339 7.15171C9.83728 7.93053 8.40329 8.53217 7.00662 8.52452C5.60763 8.51686 4.16955 7.90373 3.06912 7.12194C2.52266 6.73371 2.08433 6.32117 1.79111 5.95412C1.6445 5.77059 1.54399 5.61069 1.48289 5.48231C1.45274 5.41896 1.43505 5.36925 1.42532 5.33319C1.41664 5.30098 1.41581 5.28523 1.41574 5.28378L1.41573 5.28367V5.28394ZM7.0029 0C5.1917 0 3.46527 0.931033 2.22021 1.9701C1.59081 2.49537 1.0571 3.07041 0.673889 3.6136C0.482378 3.88506 0.320354 4.16001 0.203718 4.42686C0.0909977 4.68476 0 4.98167 0 5.28394C0 5.86604 0.337906 6.44099 0.703083 6.89811C1.09644 7.39051 1.63937 7.89181 2.27168 8.34102C3.52877 9.23411 5.23821 9.99026 6.99918 9.99991C8.76247 10.0096 10.4731 9.2644 11.7311 8.37091C12.3639 7.92154 12.9072 7.41725 13.3006 6.91839C13.6687 6.4517 14 5.87141 14 5.28394C14 4.71478 13.6861 4.10667 13.3282 3.59633C12.9447 3.04954 12.4108 2.47507 11.7815 1.95224C10.5358 0.917367 8.81149 0 7.0029 0ZM7.00008 7.45897C8.30322 7.45897 9.35963 6.35804 9.35963 4.99997C9.35963 3.64189 8.30322 2.54096 7.00008 2.54096C5.69693 2.54096 4.64053 3.64189 4.64053 4.99997C4.64053 6.35804 5.69693 7.45897 7.00008 7.45897ZM7.9439 4.99997C7.9439 5.54319 7.52133 5.98357 7.00008 5.98357C6.47882 5.98357 6.05626 5.54319 6.05626 4.99997C6.05626 4.45674 6.47882 4.01636 7.00008 4.01636C7.52133 4.01636 7.9439 4.45674 7.9439 4.99997Z" fill="#7C7B7B"/>
        </svg>
        <svg id="no-edge" width="16" height="16" viewBox="0 0 16 16" fill="none" xmlns="http://www.w3.org/2000/svg">
            <path fill-rule="evenodd" clip-rule="evenodd" d="M0.226756 0.226756C0.529097 -0.0755854 1.01929 -0.0755854 1.32163 0.226756L15.7732 14.6784C16.0756 14.9807 16.0756 15.4709 15.7732 15.7732C15.4709 16.0756 14.9807 16.0756 14.6784 15.7732L11.5844 12.6793C10.4961 13.1764 9.25923 13.5119 7.9996 13.5053C6.09561 13.4953 4.24248 12.7101 2.87712 11.7793C2.19078 11.3114 1.60333 10.7905 1.1792 10.2811C0.782466 9.80453 0.43015 9.22126 0.43015 8.64209C0.43015 8.34205 0.524529 8.04324 0.645219 7.77828C0.769714 7.50497 0.943524 7.22156 1.15047 6.94009C1.56454 6.37689 2.14279 5.77871 2.82615 5.23148C3.06322 5.04164 3.31613 4.85544 3.58256 4.67744L0.226756 1.32163C-0.0755854 1.01929 -0.0755854 0.529097 0.226756 0.226756ZM4.57764 5.67252C4.26519 5.86818 3.96651 6.08155 3.68647 6.30581C3.08342 6.78873 2.59268 7.30201 2.25936 7.75537C2.09261 7.98218 1.97312 8.18332 1.89775 8.34881C1.81856 8.52264 1.80649 8.61687 1.80649 8.64209C1.80649 8.71345 1.88278 8.97505 2.23696 9.40046C2.56374 9.79298 3.0495 10.2311 3.65238 10.6421C4.86544 11.469 6.45476 12.1208 8.00683 12.129C8.86154 12.1335 9.72699 11.9409 10.5342 11.6291L9.28611 10.381C8.914 10.6164 8.47294 10.7527 8.00004 10.7527C6.66981 10.7527 5.59144 9.67433 5.59144 8.3441C5.59144 7.8712 5.72772 7.43013 5.96316 7.05803L4.57764 5.67252ZM6.99845 8.09333L8.25081 9.34568C8.17053 9.36572 8.08653 9.37635 8.00004 9.37635C7.42994 9.37635 6.96778 8.9142 6.96778 8.3441C6.96778 8.25761 6.97842 8.17361 6.99845 8.09333ZM8.00321 4.55915C7.82986 4.55915 7.65587 4.56911 7.48186 4.5882L6.31731 3.41027C6.86477 3.26573 7.43036 3.18281 8.00321 3.18281C9.95474 3.18281 11.8222 4.13366 13.1759 5.21285C13.8591 5.75748 14.4375 6.35497 14.8518 6.92176C15.2412 7.45456 15.5699 8.0737 15.5699 8.64209C15.5699 9.22757 15.2241 9.81675 14.8246 10.3028C14.6014 10.5743 14.333 10.848 14.0287 11.1145L13.0527 10.139C13.3358 9.89721 13.5747 9.65593 13.7614 9.42878C14.1116 9.00274 14.1936 8.73071 14.1936 8.64209C14.1936 8.53638 14.0974 8.22208 13.7406 7.7339C13.4086 7.27971 12.9196 6.76869 12.318 6.28907C11.1021 5.31975 9.53024 4.55915 8.00321 4.55915Z" fill="#7C7B7B"/>
        </svg>
        <svg id="c_close" width="14" height="14" viewBox="0 0 14 14" fill="none" xmlns="http://www.w3.org/2000/svg">
            <path fill-rule="evenodd" clip-rule="evenodd" d="M1.55556 7C1.55556 3.99312 3.99312 1.55556 7 1.55556C10.0069 1.55556 12.4444 3.99312 12.4444 7C12.4444 10.0069 10.0069 12.4444 7 12.4444C3.99312 12.4444 1.55556 10.0069 1.55556 7ZM7 0C3.13401 0 0 3.13401 0 7C0 10.866 3.13401 14 7 14C10.866 14 14 10.866 14 7C14 3.13401 10.866 0 7 0ZM9.50545 9.50543C9.20171 9.80917 8.70925 9.80917 8.40551 9.50543L7.00003 8.09994L5.59454 9.50543C5.2908 9.80917 4.79834 9.80917 4.4946 9.50543C4.19086 9.20169 4.19086 8.70923 4.4946 8.40548L5.90008 7L4.4946 5.59452C4.19086 5.29077 4.19086 4.79831 4.4946 4.49457C4.79834 4.19083 5.2908 4.19083 5.59454 4.49457L7.00003 5.90006L8.40551 4.49457C8.70925 4.19083 9.20171 4.19083 9.50545 4.49457C9.8092 4.79831 9.8092 5.29078 9.50545 5.59452L8.09997 7L9.50545 8.40548C9.8092 8.70923 9.80919 9.20169 9.50545 9.50543Z" fill="#FF3030"/>
        </svg>
        <svg id="like" width="28" height="28"  viewBox="0 0 28 28" fill="none" xmlns="http://www.w3.org/2000/svg">
            <path fill-rule="evenodd" clip-rule="evenodd" d="M12.7639 0.666992C12.1608 0.666992 11.6253 1.05127 11.4345 1.62099L7.73643 12.667L7.7309 12.667H7.72363H7.71634H7.70904H7.70173H7.6944H7.68706H7.6797H7.67233H7.66494H7.65754H7.65012H7.64269H7.63525H7.62779H7.62032H7.61283H7.60533H7.59781H7.59029H7.58274H7.57519H7.56762H7.56004H7.55244H7.54483H7.53721H7.52957H7.52192H7.51426H7.50658H7.49889H7.49119H7.48347H7.47574H7.468H7.46024H7.45248H7.44469H7.4369H7.4291H7.42128H7.41345H7.4056H7.39775H7.38988H7.382H7.3741H7.3662H7.35828H7.35035H7.34241H7.33446H7.32649H7.31852H7.31053H7.30253H7.29451H7.28649H7.27845H7.27041H7.26235H7.25428H7.2462H7.2381H7.23H7.22189H7.21376H7.20562H7.19747H7.18932H7.18115H7.17296H7.16477H7.15657H7.14836H7.14013H7.1319H7.12366H7.1154H7.10713H7.09886H7.09057H7.08228H7.07397H7.06565H7.05733H7.04899H7.04065H7.03229H7.02392H7.01555H7.00716H6.99877H6.99036H6.98195H6.97352H6.96509H6.95665H6.9482H6.93973H6.93126H6.92279H6.9143H6.9058H6.89729H6.88878H6.88025H6.87172H6.86318H6.85463H6.84607H6.8375H6.82893H6.82034H6.81175H6.80315H6.79454H6.78592H6.7773H6.76866H6.76002H6.75137H6.74271H6.73405H6.72537H6.71669H6.708H6.69931H6.6906H6.68189H6.67317H6.66445H6.65571H6.64697H6.63822H6.62947H6.6207H6.61193H6.60316H6.59437H6.58558H6.57678H6.56798H6.55917H6.55035H6.54153H6.5327H6.52386H6.51501H6.50616H6.49731H6.48844H6.47958H6.4707H6.46182H6.45293H6.44404H6.43514H6.42623H6.41732H6.4084H6.39948H6.39055H6.38162H6.37268H6.36374H6.35479H6.34583H6.33687H6.3279H6.31893H6.30995H6.30097H6.29199H6.28299H6.274H6.265H6.25599H6.24698H6.23796H6.22894H6.21992H6.21089H6.20186H6.19282H6.18378H6.17473H6.16568H6.15662H6.14756H6.1385H6.12943H6.12036H6.11129H6.10221H6.09312H6.08404H6.07495H6.06585H6.05676H6.04766H6.03855H6.02945H6.02033H6.01122H6.0021H5.99298H5.98386H5.97473H5.9656H5.95647H5.94733H5.9382H5.92906H5.91991H5.91077H5.90162H5.89247H5.88331H5.87416H5.865H5.85584H5.84667H5.83751H5.82834H5.81917H5.81H5.80083H5.79165H5.78247H5.7733H5.76411H5.75493H5.74575H5.73656H5.72738H5.71819H5.709H5.69981H5.69062H5.68142H5.67223H5.66303H5.65383H5.64464H5.63544H5.62624H5.61704H5.60784H5.59863H5.58943H5.58023H5.57103H5.56182H5.55262H5.54341H5.53421H5.525H5.5158H5.50659H5.49739H5.48818H5.47897H5.46977H5.46056H5.45136H5.44215H5.43295H5.42374H5.41454H5.40534H5.39613H5.38693H5.37773H5.36853H5.35933H5.35013H5.34093H5.33174H5.32254H5.31334H5.30415H5.29496H5.28577H5.27658H5.26739H5.2582H5.24901H5.23983H5.23065H5.22146H5.21228H5.20311H5.19393H5.18476H5.17558H5.16641H5.15725H5.14808H5.13892H5.12975H5.12059H5.11144H5.10228H5.09313H5.08398H5.07483H5.06569H5.05655H5.04741H5.03827H5.02914H5.02H5.01088H5.00175H4.99263H4.98351H4.9744H4.96528H4.95617H4.94707H4.93797H4.92887H4.91977H4.91068H4.90159H4.89251H4.88343H4.87435H4.86528H4.85621H4.84714H4.83808H4.82903H4.81997H4.81092H4.80188H4.79284H4.7838H4.77477H4.76575H4.75672H4.74771H4.73869H4.72968H4.72068H4.71168H4.70269H4.6937H4.68472H4.67574H4.66676H4.65779H4.64883H4.63987H4.63092H4.62197H4.61303H4.6041H4.59517H4.58624H4.57732H4.56841H4.5595H4.5506H4.5417H4.53281H4.52393H4.51505H4.50618H4.49731H4.48845H4.4796H4.47075H4.46191H4.45308H4.44425H4.43543H4.42662H4.41781H4.40901H4.40021H4.39143H4.38265H4.37387H4.36511H4.35635H4.3476H4.33885H4.33012H4.32139H4.31266H4.30395H4.29524H4.28654H4.27785H4.26916H4.26049H4.25182H4.24316H4.2345H4.22586H4.21722H4.20859H4.19997H4.19136H4.18275H4.17416H4.16557H4.15699H4.14842H4.13985H4.1313H4.12276H4.11422H4.10569H4.09717H4.08866H4.08016H4.07167H4.06318H4.05471H4.04624H4.03779H4.02934H4.02091H4.01248H4.00406H3.99565H3.98725H3.97886H3.97048H3.96211H3.95375H3.9454H3.93706H3.92873H3.92041H3.9121H3.90379H3.8955H3.88722H3.87895H3.87069H3.86244H3.85421H3.84598H3.83776H3.82955H3.82136H3.81317H3.805H3.79683H3.78868H3.78054H3.77241H3.76429H3.75618H3.74808H3.73999H3.73192H3.72386H3.7158H3.70776H3.69973H3.69172H3.68371H3.67572H3.66773H3.65976H3.6518H3.64386H3.63592H3.628H3.62009H3.61219H3.60431H3.59643H3.58857H3.58072H3.57289H3.56506H3.55725H3.54945H3.54166H3.53389H3.52613H3.51838H3.51065H3.50293H3.49522H3.48752H3.47984H3.47217H3.46451H3.45687H3.44924H3.44163H3.43402H3.42643H3.41886H3.4113H3.40375H3.39621H3.38869H3.38119H3.37369H3.36622H3.35875H3.3513H3.34386C1.8632 12.667 0.666656 13.8623 0.666656 15.3336V24.667C0.666656 26.1397 1.86578 27.3336 3.34499 27.3336H21.7282C22.9471 27.3336 24.0122 26.5143 24.3198 25.3401L27.2011 14.3434C27.8651 11.809 25.9443 9.33366 23.3137 9.33366H17.7505L18.1862 7.45344C18.9909 3.98161 16.3426 0.666992 12.7639 0.666992ZM10.2773 13.5102L13.6396 3.46739C15.0257 3.90471 15.9249 5.35086 15.5765 6.85381L14.7913 10.2416C14.5828 11.1413 15.2691 12.0003 16.1965 12.0003H23.3137C24.1906 12.0003 24.8309 12.8254 24.6095 13.6702L21.7282 24.667H10.0408V14.0265C10.1365 13.8656 10.2162 13.6928 10.2773 13.5102ZM7.36248 15.3336H7.35828H7.35035H7.34241H7.33446H7.32649H7.31852H7.31053H7.30253H7.29451H7.28649H7.27845H7.27041H7.26235H7.25428H7.2462H7.2381H7.23H7.22189H7.21376H7.20562H7.19747H7.18932H7.18115H7.17296H7.16477H7.15657H7.14836H7.14013H7.1319H7.12366H7.1154H7.10713H7.09886H7.09057H7.08228H7.07397H7.06565H7.05733H7.04899H7.04065H7.03229H7.02392H7.01555H7.00716H6.99877H6.99036H6.98195H6.97352H6.96509H6.95665H6.9482H6.93973H6.93126H6.92279H6.9143H6.9058H6.89729H6.88878H6.88025H6.87172H6.86318H6.85463H6.84607H6.8375H6.82893H6.82034H6.81175H6.80315H6.79454H6.78592H6.7773H6.76866H6.76002H6.75137H6.74271H6.73405H6.72537H6.71669H6.708H6.69931H6.6906H6.68189H6.67317H6.66445H6.65571H6.64697H6.63822H6.62947H6.6207H6.61193H6.60316H6.59437H6.58558H6.57678H6.56798H6.55917H6.55035H6.54153H6.5327H6.52386H6.51501H6.50616H6.49731H6.48844H6.47958H6.4707H6.46182H6.45293H6.44404H6.43514H6.42623H6.41732H6.4084H6.39948H6.39055H6.38162H6.37268H6.36374H6.35479H6.34583H6.33687H6.3279H6.31893H6.30995H6.30097H6.29199H6.28299H6.274H6.265H6.25599H6.24698H6.23796H6.22894H6.21992H6.21089H6.20186H6.19282H6.18378H6.17473H6.16568H6.15662H6.14756H6.1385H6.12943H6.12036H6.11129H6.10221H6.09312H6.08404H6.07495H6.06585H6.05676H6.04766H6.03855H6.02945H6.02033H6.01122H6.0021H5.99298H5.98386H5.97473H5.9656H5.95647H5.94733H5.9382H5.92906H5.91991H5.91077H5.90162H5.89247H5.88331H5.87416H5.865H5.85584H5.84667H5.83751H5.82834H5.81917H5.81H5.80083H5.79165H5.78247H5.7733H5.76411H5.75493H5.74575H5.73656H5.72738H5.71819H5.709H5.69981H5.69062H5.68142H5.67223H5.66303H5.65383H5.64464H5.63544H5.62624H5.61704H5.60784H5.59863H5.58943H5.58023H5.57103H5.56182H5.55262H5.54341H5.53421H5.525H5.5158H5.50659H5.49739H5.48818H5.47897H5.46977H5.46056H5.45136H5.44215H5.43295H5.42374H5.41454H5.40534H5.39613H5.38693H5.37773H5.36853H5.35933H5.35013H5.34093H5.33174H5.32254H5.31334H5.30415H5.29496H5.28577H5.27658H5.26739H5.2582H5.24901H5.23983H5.23065H5.22146H5.21228H5.20311H5.19393H5.18476H5.17558H5.16641H5.15725H5.14808H5.13892H5.12975H5.12059H5.11144H5.10228H5.09313H5.08398H5.07483H5.06569H5.05655H5.04741H5.03827H5.02914H5.02H5.01088H5.00175H4.99263H4.98351H4.9744H4.96528H4.95617H4.94707H4.93797H4.92887H4.91977H4.91068H4.90159H4.89251H4.88343H4.87435H4.86528H4.85621H4.84714H4.83808H4.82903H4.81997H4.81092H4.80188H4.79284H4.7838H4.77477H4.76575H4.75672H4.74771H4.73869H4.72968H4.72068H4.71168H4.70269H4.6937H4.68472H4.67574H4.66676H4.65779H4.64883H4.63987H4.63092H4.62197H4.61303H4.6041H4.59517H4.58624H4.57732H4.56841H4.5595H4.5506H4.5417H4.53281H4.52393H4.51505H4.50618H4.49731H4.48845H4.4796H4.47075H4.46191H4.45308H4.44425H4.43543H4.42662H4.41781H4.40901H4.40021H4.39143H4.38265H4.37387H4.36511H4.35635H4.3476H4.33885H4.33012H4.32139H4.31266H4.30395H4.29524H4.28654H4.27785H4.26916H4.26049H4.25182H4.24316H4.2345H4.22586H4.21722H4.20859H4.19997H4.19136H4.18275H4.17416H4.16557H4.15699H4.14842H4.13985H4.1313H4.12276H4.11422H4.10569H4.09717H4.08866H4.08016H4.07167H4.06318H4.05471H4.04624H4.03779H4.02934H4.02091H4.01248H4.00406H3.99565H3.98725H3.97886H3.97048H3.96211H3.95375H3.9454H3.93706H3.92873H3.92041H3.9121H3.90379H3.8955H3.88722H3.87895H3.87069H3.86244H3.85421H3.84598H3.83776H3.82955H3.82136H3.81317H3.805H3.79683H3.78868H3.78054H3.77241H3.76429H3.75618H3.74808H3.73999H3.73192H3.72386H3.7158H3.70776H3.69973H3.69172H3.68371H3.67572H3.66773H3.65976H3.6518H3.64386H3.63592H3.628H3.62009H3.61219H3.60431H3.59643H3.58857H3.58072H3.57289H3.56506H3.55725H3.54945H3.54166H3.53389H3.52613H3.51838H3.51065H3.50293H3.49522H3.48752H3.47984H3.47217H3.46451H3.45687H3.44924H3.44163H3.43402H3.42643H3.41886H3.4113H3.40375H3.39621H3.38869H3.38119H3.37369H3.36622H3.35875H3.3513H3.34499V24.667H7.36248V15.3336Z" fill="#3AC922"/>
        </svg>
        <svg id="dislike" width="28" height="28" transform="rotate(180)" viewBox="0 0 28 28" fill="none" xmlns="http://www.w3.org/2000/svg">
            <path fill-rule="evenodd" clip-rule="evenodd" d="M12.7639 0.666992C12.1608 0.666992 11.6253 1.05127 11.4345 1.62099L7.73643 12.667L7.7309 12.667H7.72363H7.71634H7.70904H7.70173H7.6944H7.68706H7.6797H7.67233H7.66494H7.65754H7.65012H7.64269H7.63525H7.62779H7.62032H7.61283H7.60533H7.59781H7.59029H7.58274H7.57519H7.56762H7.56004H7.55244H7.54483H7.53721H7.52957H7.52192H7.51426H7.50658H7.49889H7.49119H7.48347H7.47574H7.468H7.46024H7.45248H7.44469H7.4369H7.4291H7.42128H7.41345H7.4056H7.39775H7.38988H7.382H7.3741H7.3662H7.35828H7.35035H7.34241H7.33446H7.32649H7.31852H7.31053H7.30253H7.29451H7.28649H7.27845H7.27041H7.26235H7.25428H7.2462H7.2381H7.23H7.22189H7.21376H7.20562H7.19747H7.18932H7.18115H7.17296H7.16477H7.15657H7.14836H7.14013H7.1319H7.12366H7.1154H7.10713H7.09886H7.09057H7.08228H7.07397H7.06565H7.05733H7.04899H7.04065H7.03229H7.02392H7.01555H7.00716H6.99877H6.99036H6.98195H6.97352H6.96509H6.95665H6.9482H6.93973H6.93126H6.92279H6.9143H6.9058H6.89729H6.88878H6.88025H6.87172H6.86318H6.85463H6.84607H6.8375H6.82893H6.82034H6.81175H6.80315H6.79454H6.78592H6.7773H6.76866H6.76002H6.75137H6.74271H6.73405H6.72537H6.71669H6.708H6.69931H6.6906H6.68189H6.67317H6.66445H6.65571H6.64697H6.63822H6.62947H6.6207H6.61193H6.60316H6.59437H6.58558H6.57678H6.56798H6.55917H6.55035H6.54153H6.5327H6.52386H6.51501H6.50616H6.49731H6.48844H6.47958H6.4707H6.46182H6.45293H6.44404H6.43514H6.42623H6.41732H6.4084H6.39948H6.39055H6.38162H6.37268H6.36374H6.35479H6.34583H6.33687H6.3279H6.31893H6.30995H6.30097H6.29199H6.28299H6.274H6.265H6.25599H6.24698H6.23796H6.22894H6.21992H6.21089H6.20186H6.19282H6.18378H6.17473H6.16568H6.15662H6.14756H6.1385H6.12943H6.12036H6.11129H6.10221H6.09312H6.08404H6.07495H6.06585H6.05676H6.04766H6.03855H6.02945H6.02033H6.01122H6.0021H5.99298H5.98386H5.97473H5.9656H5.95647H5.94733H5.9382H5.92906H5.91991H5.91077H5.90162H5.89247H5.88331H5.87416H5.865H5.85584H5.84667H5.83751H5.82834H5.81917H5.81H5.80083H5.79165H5.78247H5.7733H5.76411H5.75493H5.74575H5.73656H5.72738H5.71819H5.709H5.69981H5.69062H5.68142H5.67223H5.66303H5.65383H5.64464H5.63544H5.62624H5.61704H5.60784H5.59863H5.58943H5.58023H5.57103H5.56182H5.55262H5.54341H5.53421H5.525H5.5158H5.50659H5.49739H5.48818H5.47897H5.46977H5.46056H5.45136H5.44215H5.43295H5.42374H5.41454H5.40534H5.39613H5.38693H5.37773H5.36853H5.35933H5.35013H5.34093H5.33174H5.32254H5.31334H5.30415H5.29496H5.28577H5.27658H5.26739H5.2582H5.24901H5.23983H5.23065H5.22146H5.21228H5.20311H5.19393H5.18476H5.17558H5.16641H5.15725H5.14808H5.13892H5.12975H5.12059H5.11144H5.10228H5.09313H5.08398H5.07483H5.06569H5.05655H5.04741H5.03827H5.02914H5.02H5.01088H5.00175H4.99263H4.98351H4.9744H4.96528H4.95617H4.94707H4.93797H4.92887H4.91977H4.91068H4.90159H4.89251H4.88343H4.87435H4.86528H4.85621H4.84714H4.83808H4.82903H4.81997H4.81092H4.80188H4.79284H4.7838H4.77477H4.76575H4.75672H4.74771H4.73869H4.72968H4.72068H4.71168H4.70269H4.6937H4.68472H4.67574H4.66676H4.65779H4.64883H4.63987H4.63092H4.62197H4.61303H4.6041H4.59517H4.58624H4.57732H4.56841H4.5595H4.5506H4.5417H4.53281H4.52393H4.51505H4.50618H4.49731H4.48845H4.4796H4.47075H4.46191H4.45308H4.44425H4.43543H4.42662H4.41781H4.40901H4.40021H4.39143H4.38265H4.37387H4.36511H4.35635H4.3476H4.33885H4.33012H4.32139H4.31266H4.30395H4.29524H4.28654H4.27785H4.26916H4.26049H4.25182H4.24316H4.2345H4.22586H4.21722H4.20859H4.19997H4.19136H4.18275H4.17416H4.16557H4.15699H4.14842H4.13985H4.1313H4.12276H4.11422H4.10569H4.09717H4.08866H4.08016H4.07167H4.06318H4.05471H4.04624H4.03779H4.02934H4.02091H4.01248H4.00406H3.99565H3.98725H3.97886H3.97048H3.96211H3.95375H3.9454H3.93706H3.92873H3.92041H3.9121H3.90379H3.8955H3.88722H3.87895H3.87069H3.86244H3.85421H3.84598H3.83776H3.82955H3.82136H3.81317H3.805H3.79683H3.78868H3.78054H3.77241H3.76429H3.75618H3.74808H3.73999H3.73192H3.72386H3.7158H3.70776H3.69973H3.69172H3.68371H3.67572H3.66773H3.65976H3.6518H3.64386H3.63592H3.628H3.62009H3.61219H3.60431H3.59643H3.58857H3.58072H3.57289H3.56506H3.55725H3.54945H3.54166H3.53389H3.52613H3.51838H3.51065H3.50293H3.49522H3.48752H3.47984H3.47217H3.46451H3.45687H3.44924H3.44163H3.43402H3.42643H3.41886H3.4113H3.40375H3.39621H3.38869H3.38119H3.37369H3.36622H3.35875H3.3513H3.34386C1.8632 12.667 0.666656 13.8623 0.666656 15.3336V24.667C0.666656 26.1397 1.86578 27.3336 3.34499 27.3336H21.7282C22.9471 27.3336 24.0122 26.5143 24.3198 25.3401L27.2011 14.3434C27.8651 11.809 25.9443 9.33366 23.3137 9.33366H17.7505L18.1862 7.45344C18.9909 3.98161 16.3426 0.666992 12.7639 0.666992ZM10.2773 13.5102L13.6396 3.46739C15.0257 3.90471 15.9249 5.35086 15.5765 6.85381L14.7913 10.2416C14.5828 11.1413 15.2691 12.0003 16.1965 12.0003H23.3137C24.1906 12.0003 24.8309 12.8254 24.6095 13.6702L21.7282 24.667H10.0408V14.0265C10.1365 13.8656 10.2162 13.6928 10.2773 13.5102ZM7.36248 15.3336H7.35828H7.35035H7.34241H7.33446H7.32649H7.31852H7.31053H7.30253H7.29451H7.28649H7.27845H7.27041H7.26235H7.25428H7.2462H7.2381H7.23H7.22189H7.21376H7.20562H7.19747H7.18932H7.18115H7.17296H7.16477H7.15657H7.14836H7.14013H7.1319H7.12366H7.1154H7.10713H7.09886H7.09057H7.08228H7.07397H7.06565H7.05733H7.04899H7.04065H7.03229H7.02392H7.01555H7.00716H6.99877H6.99036H6.98195H6.97352H6.96509H6.95665H6.9482H6.93973H6.93126H6.92279H6.9143H6.9058H6.89729H6.88878H6.88025H6.87172H6.86318H6.85463H6.84607H6.8375H6.82893H6.82034H6.81175H6.80315H6.79454H6.78592H6.7773H6.76866H6.76002H6.75137H6.74271H6.73405H6.72537H6.71669H6.708H6.69931H6.6906H6.68189H6.67317H6.66445H6.65571H6.64697H6.63822H6.62947H6.6207H6.61193H6.60316H6.59437H6.58558H6.57678H6.56798H6.55917H6.55035H6.54153H6.5327H6.52386H6.51501H6.50616H6.49731H6.48844H6.47958H6.4707H6.46182H6.45293H6.44404H6.43514H6.42623H6.41732H6.4084H6.39948H6.39055H6.38162H6.37268H6.36374H6.35479H6.34583H6.33687H6.3279H6.31893H6.30995H6.30097H6.29199H6.28299H6.274H6.265H6.25599H6.24698H6.23796H6.22894H6.21992H6.21089H6.20186H6.19282H6.18378H6.17473H6.16568H6.15662H6.14756H6.1385H6.12943H6.12036H6.11129H6.10221H6.09312H6.08404H6.07495H6.06585H6.05676H6.04766H6.03855H6.02945H6.02033H6.01122H6.0021H5.99298H5.98386H5.97473H5.9656H5.95647H5.94733H5.9382H5.92906H5.91991H5.91077H5.90162H5.89247H5.88331H5.87416H5.865H5.85584H5.84667H5.83751H5.82834H5.81917H5.81H5.80083H5.79165H5.78247H5.7733H5.76411H5.75493H5.74575H5.73656H5.72738H5.71819H5.709H5.69981H5.69062H5.68142H5.67223H5.66303H5.65383H5.64464H5.63544H5.62624H5.61704H5.60784H5.59863H5.58943H5.58023H5.57103H5.56182H5.55262H5.54341H5.53421H5.525H5.5158H5.50659H5.49739H5.48818H5.47897H5.46977H5.46056H5.45136H5.44215H5.43295H5.42374H5.41454H5.40534H5.39613H5.38693H5.37773H5.36853H5.35933H5.35013H5.34093H5.33174H5.32254H5.31334H5.30415H5.29496H5.28577H5.27658H5.26739H5.2582H5.24901H5.23983H5.23065H5.22146H5.21228H5.20311H5.19393H5.18476H5.17558H5.16641H5.15725H5.14808H5.13892H5.12975H5.12059H5.11144H5.10228H5.09313H5.08398H5.07483H5.06569H5.05655H5.04741H5.03827H5.02914H5.02H5.01088H5.00175H4.99263H4.98351H4.9744H4.96528H4.95617H4.94707H4.93797H4.92887H4.91977H4.91068H4.90159H4.89251H4.88343H4.87435H4.86528H4.85621H4.84714H4.83808H4.82903H4.81997H4.81092H4.80188H4.79284H4.7838H4.77477H4.76575H4.75672H4.74771H4.73869H4.72968H4.72068H4.71168H4.70269H4.6937H4.68472H4.67574H4.66676H4.65779H4.64883H4.63987H4.63092H4.62197H4.61303H4.6041H4.59517H4.58624H4.57732H4.56841H4.5595H4.5506H4.5417H4.53281H4.52393H4.51505H4.50618H4.49731H4.48845H4.4796H4.47075H4.46191H4.45308H4.44425H4.43543H4.42662H4.41781H4.40901H4.40021H4.39143H4.38265H4.37387H4.36511H4.35635H4.3476H4.33885H4.33012H4.32139H4.31266H4.30395H4.29524H4.28654H4.27785H4.26916H4.26049H4.25182H4.24316H4.2345H4.22586H4.21722H4.20859H4.19997H4.19136H4.18275H4.17416H4.16557H4.15699H4.14842H4.13985H4.1313H4.12276H4.11422H4.10569H4.09717H4.08866H4.08016H4.07167H4.06318H4.05471H4.04624H4.03779H4.02934H4.02091H4.01248H4.00406H3.99565H3.98725H3.97886H3.97048H3.96211H3.95375H3.9454H3.93706H3.92873H3.92041H3.9121H3.90379H3.8955H3.88722H3.87895H3.87069H3.86244H3.85421H3.84598H3.83776H3.82955H3.82136H3.81317H3.805H3.79683H3.78868H3.78054H3.77241H3.76429H3.75618H3.74808H3.73999H3.73192H3.72386H3.7158H3.70776H3.69973H3.69172H3.68371H3.67572H3.66773H3.65976H3.6518H3.64386H3.63592H3.628H3.62009H3.61219H3.60431H3.59643H3.58857H3.58072H3.57289H3.56506H3.55725H3.54945H3.54166H3.53389H3.52613H3.51838H3.51065H3.50293H3.49522H3.48752H3.47984H3.47217H3.46451H3.45687H3.44924H3.44163H3.43402H3.42643H3.41886H3.4113H3.40375H3.39621H3.38869H3.38119H3.37369H3.36622H3.35875H3.3513H3.34499V24.667H7.36248V15.3336Z" fill="red"/>
        </svg>
    </defs>
</svg>